<svg width="125" height="39" viewBox="0 0 125 39" fill="none" xmlns="http://www.w3.org/2000/svg">
<g clip-path="url(#clip0_289_2)">
<path d="M20.378 32.9203C20.526 32.9296 20.6924 32.9529 20.8589 32.9529C21.571 32.9529 22.2877 32.9623 22.9998 32.9529C23.268 32.9529 23.4067 33.023 23.4067 33.3265C23.4021 35.1243 23.4067 36.9221 23.3975 38.7152C23.3975 38.8132 23.231 38.9907 23.1431 38.9907C18.4406 39 13.7426 38.9907 9.04 38.9907C9.02613 38.9907 9.01688 38.9813 8.95215 38.9533C13.7888 29.5068 18.6209 20.0603 23.4946 10.5345C28.1463 20.0323 32.7656 29.4648 37.422 38.9673C37.2278 38.9813 37.1076 39 36.9827 39C33.0107 39 29.0341 39 25.0621 39C24.5627 39 24.5534 38.9907 24.5534 38.5004C24.5534 37.87 24.5719 37.2396 24.5534 36.6139C24.5396 36.273 24.6737 36.1936 24.9835 36.1983C25.7742 36.217 26.5695 36.1983 27.3602 36.2123C27.6654 36.217 27.7717 36.1142 27.7671 35.806C27.7579 33.7608 27.7486 31.7155 27.7671 29.6656C27.7671 29.264 27.5729 29.264 27.2816 29.2593C26.9903 29.2593 26.7915 29.2734 26.7961 29.6656C26.8146 31.384 26.7961 33.1024 26.81 34.8208C26.81 35.1476 26.7267 35.255 26.3984 35.2457C25.7881 35.2223 25.1823 35.241 24.5303 35.241C24.5165 35.0402 24.498 34.8581 24.498 34.6807C24.498 30.4547 24.498 26.2335 24.4933 22.0075C24.4933 21.8394 24.4471 21.5359 24.3824 21.5219C24.0957 21.4705 23.7951 21.4892 23.4992 21.5219C23.4529 21.5266 23.4021 21.7461 23.4021 21.8675C23.3928 22.68 23.4021 23.4925 23.4021 24.305C23.4021 26.523 23.4021 28.7364 23.4021 30.9544C23.4021 31.0571 23.4021 31.1645 23.4021 31.2672C23.3897 31.6097 23.211 31.7825 22.8657 31.7856C22.4773 31.7856 22.0842 31.7669 21.6958 31.7856C21.386 31.8042 21.2889 31.6875 21.2935 31.3793C21.3074 29.7683 21.2982 28.1527 21.3028 26.537C21.3028 26.0374 20.8589 25.7572 20.4335 26.0093C20.3734 26.0467 20.3271 26.1588 20.3271 26.2335C20.3271 28.4235 20.3271 30.6135 20.3364 32.8035C20.3364 32.8269 20.3549 32.8502 20.378 32.9109V32.9203Z" fill="#CE5C17"/>
<path d="M15.153 25.0148C15.1114 25.0661 14.9727 25.1689 14.8987 25.3089C13.9277 27.1768 12.9566 29.0446 11.9995 30.9217C11.8607 31.1926 11.7035 31.286 11.3983 31.286C7.72227 31.2766 4.05083 31.2813 0.374772 31.2766C0.263796 31.2766 0.148197 31.2626 -0.00439453 31.2486C4.11095 23.2263 8.19854 15.2367 12.3139 7.1958C12.4017 7.34056 12.4665 7.42928 12.5173 7.52734C14.3346 11.2396 16.1518 14.9519 17.9736 18.6595C18.0985 18.9117 18.0939 19.1031 17.969 19.3506C17.0673 21.0783 16.1795 22.8107 15.2917 24.5478C15.2316 24.6646 15.2177 24.8046 15.1576 25.0148H15.153Z" fill="#BF0A32"/>
<path d="M23.518 8.42388C21.8765 11.6692 20.2766 14.8398 18.6351 18.0898C18.2975 17.4221 17.9923 16.8197 17.6918 16.222C17.627 16.0959 17.5854 15.9512 17.4976 15.8391C16.8872 15.0453 17.0305 14.3355 17.4883 13.467C19.7772 9.11497 21.9921 4.72094 24.2301 0.345576C24.2809 0.242846 24.341 0.149455 24.4243 0.00469971C28.5119 8.34917 32.5764 16.6516 36.6732 25.0148C36.368 25.0148 36.1322 25.0148 35.8917 25.0148C34.5693 25.0148 33.2422 25.0054 31.9197 25.0241C31.6423 25.0241 31.5128 24.9307 31.3972 24.6832C28.8494 19.3926 26.2877 14.1067 23.7307 8.81612C23.6798 8.71339 23.6243 8.61533 23.5226 8.42855L23.518 8.42388Z" fill="#002768"/>
<path d="M11.2271 3.23602L16.429 13.4203L21.631 3.23602H11.2271Z" fill="#FFD700"/>
<path d="M51.3633 21.0223L50.3738 27.2935H49.0791L51.9922 9.61926H53.8418L56.8798 27.2935H55.5296L54.4845 21.0223H51.3587H51.3633ZM54.3042 19.8315C53.5459 15.3254 53.0696 12.2109 52.9263 10.7633H52.8661C52.8107 12.0661 52.1124 16.1753 51.5576 19.8315H54.3042Z" fill="#CE5C17"/>
<path d="M59.2287 26.4203L64.6203 10.8147H59.6495V9.61926H66.0584V10.5718L60.6945 26.1027H66.063L65.8734 27.2935H59.2241V26.4249L59.2287 26.4203Z" fill="#CE5C17"/>
<path d="M77.956 19.3646C77.956 15.9605 78.0254 12.6405 78.0809 10.8427H78.0532C77.5954 13.7378 76.0047 21.9422 74.9458 27.2888H73.6234C72.8142 22.7734 71.1588 13.9339 70.7195 10.838H70.6687C70.7195 12.8786 70.8213 16.8944 70.8213 19.9156V27.2888H69.582V9.61926H71.4732C72.6246 15.3488 74.0812 22.8201 74.317 24.9167H74.3447C74.6129 22.9228 76.2174 14.9986 77.3549 9.61926H79.2415V27.2888H77.9607V19.3599L77.956 19.3646Z" fill="#CE5C17"/>
<path d="M92.0498 19.3646C92.0498 15.9605 92.1192 12.6405 92.1747 10.8427H92.1469C91.6891 13.7378 90.0985 21.9422 89.0396 27.2888H87.7171C86.9079 22.7734 85.2526 13.9339 84.8133 10.838H84.7624C84.8133 12.8786 84.915 16.8944 84.915 19.9156V27.2888H83.6758V9.61926H85.567C86.7184 15.3488 88.1749 22.8201 88.4107 24.9167H88.4385C88.7067 22.9228 90.3112 14.9986 91.4487 9.61926H93.3353V27.2888H92.0544V19.3599L92.0498 19.3646Z" fill="#CE5C17"/>
<path d="M96.105 27.2888V23.8287H97.3904V27.2888H96.105Z" fill="#CE5C17"/>
<path d="M106.245 17.5342V23.4271C106.245 26.3409 104.932 27.5036 103.073 27.5036C101.214 27.5036 99.9751 26.4016 99.9751 23.5392V17.5388C99.9751 15.2041 101.113 13.7705 103.152 13.7705C105.191 13.7705 106.245 15.2181 106.245 17.5388V17.5342ZM101.284 17.5482V23.5765C101.284 25.2903 101.88 26.3269 103.106 26.3269C104.234 26.3269 104.941 25.5751 104.941 23.5672V17.5435C104.941 16.0306 104.396 14.9379 103.124 14.9379C101.852 14.9379 101.284 15.8998 101.284 17.5482Z" fill="#CE5C17"/>
<path d="M110.162 18.5241C110.162 16.4228 110.162 15.0359 110.134 13.9806H111.374C111.401 14.3962 111.429 14.9846 111.429 16.0072C111.891 14.4802 113.01 13.8592 114.116 13.8125V15.4188C112.4 15.4422 111.447 16.7917 111.447 18.9677V27.2935H110.162V18.5241Z" fill="#CE5C17"/>
<path d="M123.04 27.3448C123.04 29.8664 122.73 32.0144 119.757 32.0144C117.283 32.0144 116.779 30.2353 116.779 28.8111V28.7364H118.087V28.8344C118.087 29.703 118.411 30.8703 119.831 30.8703C121.384 30.8703 121.763 29.717 121.763 27.6297V25.7338C121.403 26.7611 120.705 27.2374 119.493 27.2374C117.759 27.2374 116.802 26.042 116.802 23.231V17.6602C116.802 14.9425 118.041 13.7658 119.761 13.7658C121.093 13.7658 121.736 14.4943 121.902 15.1293C121.902 14.7744 121.958 14.3028 121.99 13.9806H123.1C123.072 14.653 123.049 15.9185 123.049 17.6135V27.3495L123.04 27.3448ZM118.101 17.7116V23.1096C118.101 25.0708 118.633 26.0234 119.734 26.0234C121.509 26.0234 121.777 24.0621 121.777 22.1523V18.1972C121.777 16.3854 121.583 14.9892 119.928 14.9892C118.591 14.9892 118.097 16.0445 118.097 17.7116H118.101Z" fill="#CE5C17"/>
</g>
<defs>
<clipPath id="clip0_289_2">
<rect width="125" height="39" fill="white"/>
</clipPath>
</defs>
</svg>
