<svg width="123" height="38" viewBox="0 0 123 38" fill="none" xmlns="http://www.w3.org/2000/svg">
<g clip-path="url(#clip0_266_78)">
<path d="M20.1234 32.0762C20.2696 32.0853 20.4339 32.108 20.5983 32.108C21.3015 32.108 22.0093 32.1171 22.7125 32.108C22.9773 32.108 23.1143 32.1763 23.1143 32.472C23.1097 34.2237 23.1143 35.9754 23.1052 37.7225C23.1052 37.818 22.9408 37.9909 22.854 37.9909C18.2102 38 13.5709 37.9909 8.92709 37.9909C8.91339 37.9909 8.90426 37.9818 8.84033 37.9545C13.6166 28.7503 18.3883 19.546 23.2011 10.2644C27.7947 19.5187 32.3563 28.7093 36.9545 37.9682C36.7627 37.9818 36.644 38 36.5207 38C32.5983 38 28.6714 38 24.749 38C24.2559 38 24.2467 37.9909 24.2467 37.5132C24.2467 36.899 24.265 36.2848 24.2467 35.6751C24.233 35.343 24.3654 35.2656 24.6714 35.2702C25.4522 35.2884 26.2376 35.2702 27.0184 35.2838C27.3198 35.2884 27.4248 35.1883 27.4202 34.888C27.4111 32.8952 27.402 30.9023 27.4202 28.905C27.4202 28.5137 27.2285 28.5137 26.9408 28.5091C26.6531 28.5091 26.4568 28.5228 26.4613 28.905C26.4796 30.5793 26.4613 32.2536 26.475 33.928C26.475 34.2464 26.3928 34.3511 26.0686 34.342C25.4659 34.3192 24.8677 34.3374 24.2239 34.3374C24.2102 34.1418 24.1919 33.9644 24.1919 33.7915C24.1919 29.6739 24.1919 25.5609 24.1874 21.4433C24.1874 21.2795 24.1417 20.9838 24.0778 20.9701C23.7947 20.9201 23.4979 20.9383 23.2056 20.9701C23.16 20.9747 23.1097 21.1885 23.1097 21.3068C23.1006 22.0985 23.1097 22.8901 23.1097 23.6818C23.1097 25.8429 23.1097 27.9996 23.1097 30.1607C23.1097 30.2608 23.1097 30.3655 23.1097 30.4656C23.0976 30.7992 22.921 30.9676 22.5801 30.9706C22.1965 30.9706 21.8084 30.9524 21.4248 30.9706C21.1189 30.9888 21.023 30.875 21.0275 30.5747C21.0412 29.0051 21.0321 27.4308 21.0367 25.8566C21.0367 25.3698 20.5983 25.0968 20.1782 25.3425C20.1189 25.3789 20.0732 25.4881 20.0732 25.5609C20.0732 27.6947 20.0732 29.8286 20.0823 31.9624C20.0823 31.9852 20.1006 32.0079 20.1234 32.0671V32.0762Z" fill="#CE5C17"/>
<path d="M14.9636 24.3734C14.9225 24.4234 14.7856 24.5235 14.7125 24.66C13.7536 26.4799 12.7947 28.2998 11.8495 30.1289C11.7125 30.3928 11.5573 30.4838 11.2559 30.4838C7.62574 30.4747 4.00017 30.4792 0.370035 30.4747C0.260446 30.4747 0.14629 30.461 -0.00439453 30.4474C4.05953 22.6308 8.09606 14.8461 12.16 7.01129C12.2467 7.15234 12.3107 7.23878 12.3609 7.33433C14.1554 10.9514 15.9499 14.5685 17.749 18.1811C17.8723 18.4268 17.8678 18.6133 17.7445 18.8544C16.8541 20.5379 15.9773 22.2259 15.1006 23.9184C15.0413 24.0321 15.0276 24.1686 14.9682 24.3734H14.9636Z" fill="#BF0A32"/>
<path d="M23.2238 8.20788C21.6028 11.37 20.0229 14.4593 18.4019 17.626C18.0686 16.9754 17.7672 16.3884 17.4704 15.8061C17.4065 15.6832 17.3654 15.5422 17.2786 15.433C16.6759 14.6595 16.8174 13.9679 17.2695 13.1217C19.5298 8.88126 21.717 4.59988 23.927 0.336714C23.9772 0.236618 24.0366 0.145622 24.1188 0.00457764C28.1553 8.13509 32.169 16.2246 36.2147 24.3734C35.9133 24.3734 35.6804 24.3734 35.443 24.3734C34.1371 24.3734 32.8266 24.3643 31.5206 24.3825C31.2467 24.3825 31.1188 24.2915 31.0046 24.0503C28.4887 18.8954 25.959 13.745 23.4339 8.59007C23.3836 8.48997 23.3288 8.39443 23.2284 8.21243L23.2238 8.20788Z" fill="#002768"/>
<path d="M11.0869 3.15302L16.2239 13.0761L21.3609 3.15302H11.0869Z" fill="#FFD700"/>
<path d="M54.8358 24.6372C54.8358 25.5699 54.8586 26.2843 54.886 26.5891H53.6806C53.6075 26.2251 53.571 25.7064 53.5664 25.4607C53.1646 26.539 52.2924 26.7938 51.4522 26.7938C49.6258 26.7938 48.9043 25.2332 48.9043 23.1995V22.9674C48.9043 20.2194 50.4933 19.0455 52.7947 19.0455H53.5481V16.7115C53.5481 15.4239 53.2924 14.5594 52.1098 14.5594C50.9271 14.5594 50.5801 15.4512 50.5801 16.6159V17.0572H49.3198V16.625C49.3198 14.8597 50.0276 13.4128 52.1509 13.4128C54.2742 13.4128 54.8404 14.8506 54.8404 16.6341V24.6372H54.8358ZM53.5801 20.1329H52.7993C51.1189 20.1329 50.1691 20.87 50.1691 22.9219V23.1494C50.1691 24.4825 50.5481 25.6154 51.7171 25.6154C53.1509 25.6154 53.5801 24.4052 53.5801 22.3305V20.1329Z" fill="#CE5C17"/>
<path d="M58.0825 25.7747L62.5665 14.7778H58.4889V13.6221H63.9501V14.4911L59.5346 25.438H63.877L63.7309 26.5936H58.0825V25.7792V25.7747Z" fill="#CE5C17"/>
<path d="M67.2193 17.3394C67.2193 15.1463 67.2193 14.2773 67.1919 13.6222H68.3974C68.4522 13.9907 68.4522 14.4684 68.4567 14.8916C68.7946 14.0089 69.4704 13.4174 70.6394 13.4174C71.5983 13.4174 72.3472 13.7996 72.6166 14.9871C72.9773 14.1363 73.6531 13.4174 74.9453 13.4174C76.1189 13.4174 77.3106 13.8861 77.3106 16.3657V26.5937H76.0412V16.6614C76.0412 15.5649 75.8677 14.6049 74.6531 14.6049C73.2147 14.6049 72.8951 15.9608 72.8951 17.444V26.5891H71.6211V16.7979C71.6211 15.2464 71.2604 14.6049 70.1919 14.6049C68.8129 14.6049 68.4796 16.0017 68.4796 17.6487V26.5937H67.2102V17.3439L67.2193 17.3394Z" fill="#CE5C17"/>
<path d="M81.5479 17.3394C81.5479 15.1463 81.5479 14.2773 81.5205 13.6222H82.726C82.7808 13.9907 82.7808 14.4684 82.7854 14.8916C83.1233 14.0089 83.799 13.4174 84.968 13.4174C85.9269 13.4174 86.6758 13.7996 86.9452 14.9871C87.3059 14.1363 87.9817 13.4174 89.2739 13.4174C90.4475 13.4174 91.6392 13.8861 91.6392 16.3657V26.5937H90.3698V16.6614C90.3698 15.5649 90.1963 14.6049 88.9817 14.6049C87.5433 14.6049 87.2237 15.9608 87.2237 17.444V26.5891H85.9497V16.7979C85.9497 15.2464 85.589 14.6049 84.5205 14.6049C83.1415 14.6049 82.8082 16.0017 82.8082 17.6487V26.5937H81.5388V17.3439L81.5479 17.3394Z" fill="#CE5C17"/>
<path d="M94.4658 26.5891V23.2177H95.7352V26.5891H94.4658Z" fill="#CE5C17"/>
<path d="M104.48 17.0846V22.8264C104.48 25.6655 103.183 26.7984 101.347 26.7984C99.5118 26.7984 98.2881 25.7247 98.2881 22.9356V17.0891C98.2881 14.8142 99.4114 13.4174 101.425 13.4174C103.439 13.4174 104.48 14.8279 104.48 17.0891V17.0846ZM99.5803 17.0982V22.972C99.5803 24.6463 100.169 25.6519 101.379 25.6519C102.494 25.6519 103.192 24.9193 103.192 22.9629V17.0937C103.192 15.6195 102.653 14.5549 101.398 14.5549C100.142 14.5549 99.5803 15.4921 99.5803 17.0982Z" fill="#CE5C17"/>
<path d="M108.347 18.0491C108.347 16.0017 108.347 14.6504 108.32 13.6221H109.544C109.571 14.027 109.598 14.6003 109.598 15.5967C110.055 14.1089 111.16 13.5038 112.251 13.4583V15.0234C110.557 15.0462 109.617 16.3611 109.617 18.4813V26.5936H108.347V18.0491Z" fill="#CE5C17"/>
<path d="M121.064 26.6437C121.064 29.1006 120.758 31.1935 117.822 31.1935C115.379 31.1935 114.881 29.46 114.881 28.0723V27.9995H116.174V28.0951C116.174 28.9413 116.493 30.0788 117.895 30.0788C119.429 30.0788 119.804 28.955 119.804 26.9212V25.074C119.448 26.075 118.758 26.539 117.562 26.539C115.849 26.539 114.904 25.3743 114.904 22.6353V17.2074C114.904 14.5594 116.128 13.4128 117.827 13.4128C119.142 13.4128 119.776 14.1226 119.941 14.7414C119.941 14.3956 119.995 13.9361 120.027 13.6221H121.123C121.096 14.2773 121.073 15.5103 121.073 17.1619V26.6482L121.064 26.6437ZM116.187 17.2574V22.517C116.187 24.4279 116.712 25.3561 117.799 25.3561C119.553 25.3561 119.817 23.4452 119.817 21.5843V17.7306C119.817 15.9653 119.626 14.6049 117.991 14.6049C116.671 14.6049 116.183 15.6331 116.183 17.2574H116.187Z" fill="#CE5C17"/>
</g>
<defs>
<clipPath id="clip0_266_78">
<rect width="123" height="38" fill="white"/>
</clipPath>
</defs>
</svg>
