<svg width="134" height="44" viewBox="0 0 134 44" fill="none" xmlns="http://www.w3.org/2000/svg">
<path d="M23.4152 37.1378C23.5871 37.1378 23.7889 37.1749 23.9682 37.1749C24.7866 37.1749 25.6087 37.1749 26.4308 37.1749C26.7373 37.1749 26.8942 37.2564 26.8942 37.5973C26.8942 39.6241 26.8942 41.6508 26.8942 43.6776C26.8942 43.7888 26.7074 43.9926 26.6027 43.9926C21.2042 43.9926 15.8032 43.9926 10.3997 43.9926C10.3649 43.982 10.3312 43.9684 10.2988 43.9518L26.9988 11.8828L43.0001 43.9592C42.7758 43.9592 42.6264 43.9963 42.4993 43.9963H28.8C28.2245 43.9963 28.2171 43.9963 28.2171 43.4294C28.2171 42.7217 28.2395 42.0102 28.2171 41.2988C28.2171 40.9283 28.3553 40.8246 28.7103 40.832C29.6221 40.8505 30.5339 40.832 31.442 40.832C31.7895 40.832 31.9128 40.7245 31.9128 40.3762C31.9128 38.0641 31.9128 35.7558 31.9128 33.4474C31.9128 32.9953 31.6886 32.9953 31.3597 32.9916C31.0309 32.9879 30.7955 32.9916 30.7992 33.4511C30.7992 35.3889 30.7992 37.3268 30.7992 39.2684C30.7992 39.6389 30.7021 39.7575 30.3246 39.7426C29.6258 39.7167 28.9233 39.7426 28.1797 39.7426C28.1797 39.5129 28.1423 39.3128 28.1423 39.1127C28.1423 34.3478 28.1423 29.5828 28.1423 24.8178C28.1423 24.6252 28.09 24.2843 28.0153 24.2694C27.6794 24.2213 27.3384 24.2213 27.0026 24.2694C26.9465 24.2694 26.8905 24.5214 26.8905 24.64C26.8905 25.5552 26.8905 26.4926 26.8905 27.393C26.8905 29.8953 26.8905 32.3963 26.8905 34.8961C26.8905 35.0147 26.8905 35.1333 26.8905 35.2481C26.8643 35.8299 26.8643 35.8336 26.2739 35.8336C25.8255 35.8336 25.377 35.8113 24.9324 35.8336C24.5587 35.8336 24.4653 35.7224 24.469 35.3741C24.469 33.5548 24.469 31.7356 24.469 29.9163C24.482 29.7956 24.46 29.6738 24.4056 29.5652C24.3511 29.4565 24.2666 29.3655 24.1618 29.3028C24.057 29.2402 23.9364 29.2085 23.814 29.2115C23.6917 29.2145 23.5728 29.252 23.4712 29.3197C23.434 29.3508 23.4038 29.3893 23.3826 29.4327C23.3614 29.4761 23.3495 29.5235 23.3479 29.5717C23.3479 32.0419 23.3479 34.512 23.3479 36.9822C23.3666 37.0526 23.389 37.0711 23.4152 37.1378Z" fill="#CE5C17"/>
<path d="M17.41 28.223C17.2976 28.3201 17.1995 28.4323 17.1185 28.5565C16.0025 30.661 14.8926 32.7718 13.789 34.8888C13.7352 35.0222 13.639 35.1346 13.5149 35.2089C13.3907 35.2831 13.2456 35.3151 13.1014 35.3C8.86631 35.3 4.64491 35.3 0.437212 35.3C0.306422 35.3 0.175632 35.3 0 35.2704C4.71965 26.2036 9.41688 17.1924 14.1477 8.11823C14.2486 8.28126 14.3234 8.3813 14.3794 8.48875C16.4696 12.6757 18.5597 16.8626 20.6499 21.0496C20.7226 21.1665 20.7611 21.3012 20.7611 21.4386C20.7611 21.5761 20.7226 21.7108 20.6499 21.8277C19.6085 23.7791 18.5796 25.7343 17.5632 27.6931C17.4957 27.8646 17.4444 28.042 17.41 28.223Z" fill="#BF0A32"/>
<path d="M27.025 9.504L21.4197 20.4086L20.336 18.3003C20.2741 18.1496 20.199 18.0046 20.1118 17.8668C19.413 16.9701 19.5737 16.1735 20.1118 15.1879C22.7238 10.2821 25.2649 5.32446 27.8396 0.370526C27.8994 0.255663 27.9666 0.148211 28.0638 0L42.1368 28.2156H41.2362C39.7153 28.2156 38.1944 28.2156 36.6735 28.2156C36.5457 28.2305 36.4166 28.202 36.3073 28.1347C36.198 28.0674 36.115 27.9653 36.0719 27.8451C33.1422 21.8796 30.2113 15.9116 27.2791 9.94122C27.2043 9.82636 27.1371 9.71149 27.025 9.504Z" fill="#002768"/>
<path d="M12.8994 3.65338L18.8784 15.1397L24.8574 3.65338H12.8994Z" fill="#FFD700"/>
<g clip-path="url(#clip0_301_2)">
<path d="M87.2662 29.9575H85.8113V16.2038H85.678C84.8857 20.7742 84.0934 25.3499 83.3011 29.9309H81.7556C81.0148 25.3481 80.2686 20.7228 79.5225 16.1241H79.4213V29.9309H78.0623C78.0623 29.6973 78.0303 29.4689 78.0303 29.2406C78.0303 24.5569 78.0303 19.8679 78.0303 15.1842C78.0303 14.6531 78.1742 14.4938 78.7071 14.4938C80.4285 14.4938 80.4498 14.4938 80.7536 16.2462C81.3292 19.5811 81.8835 22.916 82.4484 26.2562C82.4484 26.3252 82.5017 26.3943 82.6616 26.4739C82.7735 25.8685 82.8748 25.2685 82.992 24.6684C83.5942 21.4822 84.2124 18.296 84.7987 15.1098C84.8893 14.616 85.1078 14.4673 85.6034 14.4673C87.2716 14.4673 87.2716 14.4673 87.2716 16.1241C87.2716 20.475 87.2716 24.8224 87.2716 29.1663L87.2662 29.9575Z" fill="#CE5C17"/>
<path d="M101.155 14.531V29.8672C101.091 29.9097 101.059 29.9469 101.021 29.9522C99.6998 30.0744 99.6944 30.0744 99.6944 28.7574C99.6944 24.9198 99.7051 21.0822 99.7264 17.2446C99.7472 16.8994 99.702 16.5534 99.5932 16.225C98.8009 20.7919 98.0085 25.3606 97.2162 29.931H95.676C94.9299 25.3287 94.1838 20.7264 93.4376 16.1241H93.3417V29.931C93.3097 29.931 93.2724 29.9841 93.2405 29.9894C91.9561 30.0903 91.9561 30.0903 91.9561 28.8105V15.4232C91.9561 14.531 91.9614 14.531 92.8461 14.531C94.3063 14.531 94.3063 14.531 94.5728 15.9117C95.1804 19.3475 95.756 22.8151 96.3475 26.2244C96.3475 26.304 96.3902 26.3837 96.4541 26.612C96.5304 26.4645 96.5963 26.3119 96.6513 26.1553C97.3441 22.4593 98.0334 18.7616 98.7191 15.0621C98.7938 14.6691 98.959 14.4726 99.396 14.4939C99.9609 14.531 100.531 14.531 101.155 14.531Z" fill="#CE5C17"/>
<path d="M121.844 21.7478C122.286 21.9787 122.649 22.335 122.888 22.7717C123.127 23.2083 123.231 23.7057 123.187 24.2011C123.187 26.0173 123.187 27.8334 123.187 29.7079C123.245 29.6708 123.187 29.7079 123.187 29.7079C121.588 29.7398 121.849 29.8354 121.801 28.4335C121.753 27.0315 121.732 25.6774 121.694 24.302C121.662 22.762 120.591 21.9655 119.115 22.4169C118.966 22.4647 118.832 22.8045 118.827 23.0063C118.827 24.9977 118.827 26.9944 118.827 28.9857V29.6123C118.726 29.6814 118.71 29.7026 118.694 29.7026C116.914 29.7504 117.266 29.8619 117.26 28.4122C117.26 23.9409 117.26 19.4643 117.26 14.993C117.26 14.4301 117.383 14.1859 117.996 14.2283C119.062 14.3027 120.085 14.2283 121.113 14.3611C121.677 14.3964 122.207 14.6355 122.606 15.0336C123.004 15.4317 123.243 15.9612 123.277 16.5224C123.376 17.6141 123.376 18.7125 123.277 19.8042C123.225 20.2234 123.066 20.6224 122.815 20.9627C122.564 21.3031 122.23 21.5734 121.844 21.7478ZM118.822 18.2483C118.822 19.0289 118.822 19.8148 118.822 20.6007C118.822 20.7653 118.875 21.0202 118.992 21.0893C119.728 21.53 121.492 20.8928 121.604 20.0272C121.734 18.9016 121.734 17.7648 121.604 16.6392C121.566 16.2728 121.071 15.848 120.666 15.6515C120.223 15.5113 119.76 15.4501 119.296 15.471C118.907 15.4338 118.763 15.6303 118.763 16.002C118.822 16.7614 118.822 17.5048 118.822 18.2483Z" fill="#CE5C17"/>
<path d="M112.682 21.9655C112.682 23.4683 112.736 24.9764 112.682 26.4792C112.624 27.7856 112.309 29.0813 110.913 29.6017C108.611 30.4513 106.223 29.7451 106.116 26.7288C106.028 23.5674 106.028 20.4095 106.116 17.2552C106.228 14.3239 108.579 13.5539 110.694 14.2389C112.176 14.7222 112.608 16.0285 112.661 17.4251C112.72 18.928 112.661 20.4361 112.661 21.9442L112.682 21.9655ZM111.083 21.9655C111.083 20.4998 111.083 19.0395 111.083 17.5791C111.08 17.2407 111.028 16.9045 110.929 16.5808C110.84 16.2392 110.637 15.9381 110.353 15.7275C110.069 15.5169 109.721 15.4095 109.367 15.4231C109.011 15.3952 108.657 15.498 108.371 15.7121C108.085 15.9263 107.888 16.2371 107.817 16.5861C107.693 17.0901 107.63 17.6072 107.63 18.1261C107.63 20.7281 107.63 23.3355 107.63 25.9429C107.649 26.5525 107.774 27.1543 107.998 27.7218C108.138 27.9765 108.345 28.1882 108.597 28.3341C108.849 28.48 109.136 28.5545 109.427 28.5496C109.719 28.5447 110.003 28.4605 110.25 28.3062C110.497 28.1519 110.696 27.9333 110.828 27.6741C110.988 27.2616 111.078 26.8255 111.094 26.3836C111.115 24.9021 111.094 23.4205 111.094 21.9655H111.083Z" fill="#CE5C17"/>
<path d="M130.802 21.3017H133.957C133.957 21.5513 134 21.8009 134 22.0452C134 24.2684 134 26.4952 134 28.7255C134 29.7876 134 29.7876 132.844 29.6814L132.598 28.5397C132.492 28.6777 132.428 28.7521 132.375 28.8371C131.74 29.8991 130.706 30 129.641 29.8407C129.194 29.7731 128.779 29.571 128.452 29.2615C128.124 28.9521 127.899 28.5501 127.807 28.1095C127.672 27.7099 127.593 27.2935 127.573 26.8722C127.573 23.686 127.573 20.4999 127.573 17.3137C127.588 16.7857 127.702 16.2653 127.909 15.779C128.479 14.3877 129.838 13.7611 131.495 14.0531C132.167 14.1418 132.783 14.4741 133.224 14.9864C133.665 15.4988 133.902 16.1553 133.888 16.8304C133.886 16.8516 133.886 16.873 133.888 16.8941C133.963 18.312 133.957 18.3173 132.476 18.0837C132.412 17.5951 132.375 17.0959 132.279 16.6074C132.209 16.2713 132.029 15.9681 131.767 15.7457C131.504 15.5234 131.175 15.3947 130.831 15.38C130.487 15.3654 130.148 15.4657 129.867 15.6649C129.587 15.8642 129.382 16.151 129.284 16.4799C129.144 16.9891 129.067 17.5134 129.054 18.0412C129.054 20.6963 129.028 23.2984 129.054 25.927C129.078 26.5372 129.193 27.1404 129.395 27.7166C129.489 27.9804 129.671 28.204 129.911 28.3492C130.151 28.4944 130.434 28.5523 130.712 28.5131C130.99 28.5447 131.27 28.4816 131.507 28.3341C131.744 28.1865 131.924 27.9632 132.018 27.7006C132.207 27.2102 132.326 26.6952 132.369 26.1713C132.428 25.157 132.369 24.1374 132.407 23.1178C132.407 22.7408 132.295 22.5549 131.874 22.5868C131.831 22.5895 131.788 22.5895 131.746 22.5868C130.627 22.5921 130.584 22.539 130.802 21.3017Z" fill="#CE5C17"/>
<path d="M64.4239 29.931H62.8624C62.6439 28.6087 62.4094 27.3023 62.2122 25.9854C62.0577 24.9605 62.0736 24.9552 61.0717 24.9499C59.281 24.9499 59.297 24.9499 59.0518 26.7182C58.9079 27.7803 58.7108 28.8423 58.5189 29.9363H57C57.1226 29.1238 57.2292 28.3432 57.3571 27.5572C58.0286 23.4541 58.7001 19.3457 59.3716 15.232C59.4569 14.7328 59.6061 14.4779 60.1977 14.4885C61.7485 14.531 61.7965 14.4779 62.0363 15.9754C62.7558 20.0591 63.4486 24.1427 64.1681 28.2317C64.2481 28.7839 64.328 29.3415 64.4239 29.931ZM61.7965 23.5267C61.4288 20.9937 61.0664 18.5562 60.7306 16.1241H60.5601L59.4942 23.5214L61.7965 23.5267Z" fill="#CE5C17"/>
<path d="M72.4553 15.8745H69.0285C68.1864 15.8745 67.9893 15.6356 68.2078 14.8125C68.2454 14.7391 68.2997 14.6755 68.3663 14.6266C68.4329 14.5778 68.51 14.545 68.5915 14.531C70.3129 14.531 72.0396 14.531 73.7611 14.531C73.8996 14.531 74.1608 14.8178 74.1448 14.9452C74.0925 15.5509 73.9745 16.1491 73.793 16.7295C72.4553 20.5423 71.091 24.3498 69.7373 28.152C69.7373 28.2316 69.6947 28.3113 69.6467 28.4812H74.2247C74.1554 28.9645 74.1288 29.3521 74.0382 29.7238C74.0009 29.7919 73.9474 29.8498 73.8823 29.8924C73.8172 29.935 73.7427 29.961 73.6651 29.9681C71.7359 29.9681 69.8066 29.9681 67.7388 29.9681C67.7767 29.4533 67.8623 28.9431 67.9946 28.444C69.3856 24.4985 70.8085 20.5582 72.2208 16.6127C72.2901 16.4321 72.3328 16.225 72.4553 15.8745Z" fill="#CE5C17"/>
<path d="M102.833 29.7292C102.833 29.4902 102.79 29.3256 102.785 29.161V26.7448C102.881 26.6917 102.913 26.6598 102.95 26.6545C104.363 26.5536 104.363 26.5536 104.368 27.9502C104.368 28.3538 104.368 28.7574 104.368 29.1557C104.368 29.5539 104.235 29.777 103.787 29.7504C103.494 29.7079 103.18 29.7292 102.833 29.7292Z" fill="#CE5C17"/>
</g>
<defs>
<clipPath id="clip0_301_2">
<rect width="77" height="16" fill="white" transform="translate(57 14)"/>
</clipPath>
</defs>
</svg>
